<svg width="464" height="131" xmlns="http://www.w3.org/2000/svg" xmlns:xlink="http://www.w3.org/1999/xlink">
<style>.st1 { fill:none; stroke:#000; stroke-linecap:round; stroke-linejoin:round }</style>
<defs>
<g id="blue">
<circle cx="8.4" r="6" fill="#E0E0FF"/>
<circle cx="5.6" r="6" fill="#C0C0FF"/>
<circle cx="2.8" r="6" fill="#8080FF"/>
<circle r="6" fill="#00F"/>
</g>
<g id="red">
<g id="red3">
<circle cx="25.5" r="6" fill="#FFE0E0"/>
<circle cx="17" r="6" fill="#FFC0C0"/>
<circle cx="8.5" r="6" fill="#FF8080"/>
</g>
<circle r="6" fill="#F00"/>
</g>
</defs>

<rect x="1.5" y="1.5" width="96" height="128" fill="#E0E0FF"/>
<rect x="97.42" y="1.5" width="96" height="128" fill="#FFE0E0"/>
<rect x="270.5" y="1.5" width="192" height="128" fill="#F8E0FF"/>
<path d="M252.5 67.5l-21.71 22v-11h-16.3v-22h16.3v-11Z"/>
<path d="M97.5 53.5v24m270-24 17.5 17.5" class="st1" stroke-width="2"/>

<use xlink:href="#blue" transform="translate(75.1,21.7) rotate(174)"/>
<use xlink:href="#blue" transform="translate(36.8,36.6) rotate(66)"/>
<use xlink:href="#blue" transform="translate(14.3,63.3) rotate(55)"/>
<use xlink:href="#blue" transform="translate(26.8,102.7) rotate(323)"/>
<use xlink:href="#blue" transform="translate(72.8,104.4) rotate(250)"/>

<use xlink:href="#blue" transform="translate(310.2,25.5) rotate(225)"/>
<use xlink:href="#blue" transform="translate(282.2,69.5) rotate(320)"/>
<use xlink:href="#blue" transform="translate(429.8,21.2) rotate(128)"/>
<use xlink:href="#blue" transform="translate(438.2,71.4) rotate(347)"/>
<use xlink:href="#blue" transform="translate(387.9,103.2) rotate(321)"/>


<use xlink:href="#red" transform="translate(176,29.7) rotate(188)"/>
<use xlink:href="#red" transform="translate(121.1,34) rotate(39)"/>
<use xlink:href="#red" transform="translate(111.5,72.4) rotate(7)"/>
<use xlink:href="#red" transform="translate(177.3,77.5) rotate(141)"/>
<use xlink:href="#red" transform="translate(125.7,91.5) rotate(86)"/>

<use xlink:href="#red" transform="translate(307.9,53.5) rotate(66)"/>
<use xlink:href="#red" transform="translate(360.2,65.5) rotate(179)"/>
<use xlink:href="#red3" transform="translate(330.2,129.5) rotate(225)"/>
<circle cx="330.2" cy="117.5" r="6" fill="#F00"/>
<use xlink:href="#red" transform="translate(402.2,26.6) rotate(132)"/>
<use xlink:href="#red" transform="translate(420.2,107.5) rotate(271)"/>

<g id="frame">
<g class="st1" stroke-width="3">
<rect x="1.5" y="1.5" width="192" height="128"/>
<path d="M97.5 1.5v52m0 24v52"/>
</g>
<g font-family="Sans" font-size="24" font-weight="bold" fill="#444">
<text x="6.16" y="23">A</text>
<text x="100" y="23">B</text>
</g>
</g>
<use xlink:href="#frame" x="270"/>
</svg>